<svg id="logo" width="40" height="40" fill="none" xmlns="http://www.w3.org/2000/svg"><path d="M35 2H5a3 3 0 00-3 3v30a3 3 0 003 3h30a3 3 0 003-3V5a3 3 0 00-3-3z" fill="#5A93A7" stroke="#fff" stroke-width="4" stroke-linecap="round" stroke-linejoin="round"/><path d="M9 20h7.5H9z" fill="#7E22CE"/><path d="M9 20h7.5" stroke="#fff" stroke-width="4" stroke-linecap="round" stroke-linejoin="round"/><path d="M9 27V13h8" fill="#5A93A7"/><path d="M9 27V13h8" stroke="#fff" stroke-width="4" stroke-linecap="round" stroke-linejoin="round"/><path d="M9 27h7.5H9z" fill="#7E22CE"/><path d="M9 27h7.5" stroke="#fff" stroke-width="4" stroke-linecap="round" stroke-linejoin="round"/><path d="M22 27V15v12z" fill="#7E22CE"/><path d="M22 27V15" stroke="#fff" stroke-width="4" stroke-linecap="round" stroke-linejoin="round"/><path d="M22 27v-6.5a4.5 4.5 0 119 0V27" fill="#5A93A7"/><path d="M22 27v-6.5a4.5 4.5 0 119 0V27" stroke="#fff" stroke-width="4" stroke-linecap="round" stroke-linejoin="round"/></svg>