<svg width="46" height="28" viewBox="0 0 46 28" fill="none" xmlns="http://www.w3.org/2000/svg">
<path d="M12.3122 4H16.1V10H7.99969L10.1847 5.25625C10.5297 4.5 11.3706 4 12.3122 4ZM19.55 10V4H25.3862C26.0834 4 26.7447 4.275 27.1831 4.75L32.0131 10H19.55ZM37.9644 10.0625L30.7769 2.25C29.4688 0.825 27.485 0 25.3862 0H12.3122C9.4875 0 6.95031 1.49375 5.90812 3.76875L2.91812 10.275C1.2075 10.8625 0 12.3062 0 14V21C0 22.1063 1.02781 23 2.3 23H4.69344C5.23969 25.8375 8.07875 28 11.5 28C14.9212 28 17.7603 25.8375 18.3066 23H27.6934C28.2397 25.8375 31.0787 28 34.5 28C37.9212 28 40.7603 25.8375 41.3066 23H43.7C44.9722 23 46 22.1063 46 21V18C46 13.925 42.4925 10.5625 37.9644 10.0625ZM31.2441 21C31.3905 20.6235 31.6215 20.2761 31.9236 19.9778C32.2258 19.6796 32.593 19.4366 33.0041 19.2628C33.4152 19.0891 33.8619 18.9881 34.3182 18.9658C34.7746 18.9434 35.2314 19.0001 35.6624 19.1326C36.0933 19.2651 36.4896 19.4708 36.8284 19.7376C37.1671 20.0044 37.4415 20.3271 37.6356 20.6869C37.8298 21.0467 37.9397 21.4365 37.9591 21.8336C37.9786 22.2307 37.907 22.6272 37.7487 23C37.6023 23.3765 37.3713 23.7239 37.0692 24.0222C36.7671 24.3204 36.3998 24.5634 35.9887 24.7372C35.5776 24.9109 35.1309 25.0119 34.6746 25.0342C34.2183 25.0566 33.7614 24.9999 33.3304 24.8674C32.8995 24.7349 32.5032 24.5292 32.1644 24.2624C31.8257 23.9956 31.5513 23.6729 31.3572 23.3131C31.163 22.9533 31.0531 22.5635 31.0337 22.1664C31.0143 21.7693 31.0858 21.3728 31.2441 21ZM11.5 19C12.415 19 13.2925 19.3161 13.9395 19.8787C14.5865 20.4413 14.95 21.2044 14.95 22C14.95 22.7956 14.5865 23.5587 13.9395 24.1213C13.2925 24.6839 12.415 25 11.5 25C10.585 25 9.70748 24.6839 9.06048 24.1213C8.41348 23.5587 8.05 22.7956 8.05 22C8.05 21.2044 8.41348 20.4413 9.06048 19.8787C9.70748 19.3161 10.585 19 11.5 19Z" fill="black"/>
</svg>
