<svg width="51" height="34" viewBox="0 0 51 34" fill="none" xmlns="http://www.w3.org/2000/svg">
<path d="M9.5625 4.85714C9.5625 2.17813 12.4213 0 15.9375 0H44.625C48.1412 0 51 2.17813 51 4.85714V29.1429C51 31.8219 48.1412 34 44.625 34H7.96875C3.56602 34 0 31.283 0 27.9286V7.28571C0 5.94241 1.42441 4.85714 3.1875 4.85714C4.95059 4.85714 6.375 5.94241 6.375 7.28571V27.9286C6.375 28.5964 7.09219 29.1429 7.96875 29.1429C8.84531 29.1429 9.5625 28.5964 9.5625 27.9286V4.85714ZM15.9375 6.67857V12.75C15.9375 13.7594 17.0033 14.5714 18.3281 14.5714H29.4844C30.8092 14.5714 31.875 13.7594 31.875 12.75V6.67857C31.875 5.6692 30.8092 4.85714 29.4844 4.85714H18.3281C17.0033 4.85714 15.9375 5.6692 15.9375 6.67857ZM36.6562 6.07143C36.6562 6.73929 37.3734 7.28571 38.25 7.28571H43.0312C43.9078 7.28571 44.625 6.73929 44.625 6.07143C44.625 5.40357 43.9078 4.85714 43.0312 4.85714H38.25C37.3734 4.85714 36.6562 5.40357 36.6562 6.07143ZM36.6562 13.3571C36.6562 14.025 37.3734 14.5714 38.25 14.5714H43.0312C43.9078 14.5714 44.625 14.025 44.625 13.3571C44.625 12.6893 43.9078 12.1429 43.0312 12.1429H38.25C37.3734 12.1429 36.6562 12.6893 36.6562 13.3571ZM15.9375 20.6429C15.9375 21.3107 16.6547 21.8571 17.5312 21.8571H43.0312C43.9078 21.8571 44.625 21.3107 44.625 20.6429C44.625 19.975 43.9078 19.4286 43.0312 19.4286H17.5312C16.6547 19.4286 15.9375 19.975 15.9375 20.6429ZM15.9375 27.9286C15.9375 28.5964 16.6547 29.1429 17.5312 29.1429H43.0312C43.9078 29.1429 44.625 28.5964 44.625 27.9286C44.625 27.2607 43.9078 26.7143 43.0312 26.7143H17.5312C16.6547 26.7143 15.9375 27.2607 15.9375 27.9286Z" fill="black"/>
</svg>
