<svg width="55" height="34" viewBox="0 0 55 34" fill="none" xmlns="http://www.w3.org/2000/svg">
<path d="M27.5007 0C26.8046 0 26.1171 0.106229 25.464 0.3111L1.3591 7.99754C0.542716 8.26311 0.00132274 8.94601 0.00132274 9.71238C0.00132274 10.4788 0.542716 11.1617 1.3591 11.4272L6.33476 13.0131C4.92542 14.9707 4.12622 17.285 4.12622 19.7207V21.8529C4.12622 24.0078 3.19812 26.231 2.20986 27.9838C1.65128 28.9702 1.01536 29.9415 0.276316 30.8368C0.00132274 31.1631 -0.0760192 31.588 0.0786646 31.975C0.233348 32.362 0.594277 32.6503 1.04114 32.7489L6.54101 33.963C6.90194 34.0465 7.28865 33.9858 7.60661 33.8112C7.92457 33.6367 8.148 33.3484 8.21675 33.0221C8.95579 29.7745 8.58627 26.8608 8.03629 24.7742C7.76129 23.6967 7.39177 22.5965 6.87616 21.5873V19.7207C6.87616 17.4292 7.7527 15.2667 9.27376 13.5366C10.3823 12.3605 11.8174 11.412 13.5018 10.8278L26.9936 6.14612C27.6983 5.90331 28.4975 6.20682 28.7725 6.82902C29.0475 7.45122 28.7038 8.15688 27.9991 8.39969L14.5072 13.0814C13.4416 13.4532 12.5049 14.0223 11.7401 14.7203L25.4554 19.0909C26.1085 19.2958 26.796 19.402 27.4921 19.402C28.1881 19.402 28.8756 19.2958 29.5287 19.0909L53.6422 11.4272C54.4586 11.1692 55 10.4788 55 9.71238C55 8.94601 54.4586 8.26311 53.6422 7.99754L29.5373 0.3111C28.8842 0.106229 28.1967 0 27.5007 0ZM11.0011 28.5301C11.0011 31.2086 18.3915 33.9933 27.5007 33.9933C36.6098 33.9933 44.0003 31.2086 44.0003 28.5301L42.6855 17.4975L30.4654 21.3976C29.5116 21.7011 28.5061 21.8529 27.5007 21.8529C26.4952 21.8529 25.4812 21.7011 24.5359 21.3976L12.3159 17.4975L11.0011 28.5301Z" fill="black"/>
</svg>
