<svg width="46" height="28" fill="none" xmlns="http://www.w3.org/2000/svg"><path d="M12.312 4H16.1v6H8l2.185-4.744C10.53 4.5 11.37 4 12.312 4zm7.238 6V4h5.836c.697 0 1.359.275 1.797.75l4.83 5.25H19.55zm18.414.063L30.777 2.25C29.469.825 27.485 0 25.387 0H12.311C9.488 0 6.95 1.494 5.908 3.769l-2.99 6.506C1.208 10.863 0 12.306 0 14v7c0 1.106 1.028 2 2.3 2h2.393c.547 2.837 3.386 5 6.807 5 3.421 0 6.26-2.163 6.807-5h9.386c.547 2.837 3.386 5 6.807 5 3.421 0 6.26-2.163 6.807-5H43.7c1.272 0 2.3-.894 2.3-2v-3c0-4.075-3.508-7.438-8.036-7.938zM31.244 21c.146-.377.378-.724.68-1.022a3.449 3.449 0 011.08-.715 3.928 3.928 0 012.658-.13c.431.132.828.338 1.166.605.34.266.613.59.808.949A2.645 2.645 0 0137.749 23a2.936 2.936 0 01-.68 1.022 3.46 3.46 0 01-1.08.715 3.929 3.929 0 01-2.658.13 3.589 3.589 0 01-1.167-.605 3.069 3.069 0 01-.807-.949A2.647 2.647 0 0131.244 21zM11.5 19c.915 0 1.793.316 2.44.879.646.562 1.01 1.325 1.01 2.121s-.364 1.559-1.01 2.121c-.647.563-1.525.879-2.44.879s-1.793-.316-2.44-.879C8.413 23.56 8.05 22.796 8.05 22s.363-1.559 1.01-2.121c.647-.563 1.525-.879 2.44-.879z" fill="#000"/></svg>