<svg width="51" height="34" fill="none" xmlns="http://www.w3.org/2000/svg"><path d="M9.563 4.857C9.563 2.178 12.42 0 15.936 0h28.688C48.141 0 51 2.178 51 4.857v24.286C51 31.822 48.141 34 44.625 34H7.969C3.566 34 0 31.283 0 27.929V7.286c0-1.344 1.424-2.429 3.188-2.429 1.763 0 3.187 1.085 3.187 2.429v20.643c0 .667.717 1.214 1.594 1.214.876 0 1.593-.547 1.593-1.214V4.857zm6.374 1.822v6.071c0 1.01 1.066 1.821 2.391 1.821h11.156c1.325 0 2.391-.812 2.391-1.821V6.679c0-1.01-1.066-1.822-2.39-1.822H18.327c-1.325 0-2.39.812-2.39 1.822zm20.72-.608c0 .668.716 1.215 1.593 1.215h4.781c.877 0 1.594-.547 1.594-1.215 0-.667-.717-1.214-1.594-1.214H38.25c-.877 0-1.594.547-1.594 1.214zm0 7.286c0 .668.716 1.214 1.593 1.214h4.781c.877 0 1.594-.546 1.594-1.214 0-.668-.717-1.214-1.594-1.214H38.25c-.877 0-1.594.546-1.594 1.214zm-20.72 7.286c0 .668.718 1.214 1.594 1.214h25.5c.877 0 1.594-.546 1.594-1.214 0-.668-.717-1.214-1.594-1.214h-25.5c-.876 0-1.593.546-1.593 1.214zm0 7.286c0 .667.718 1.214 1.594 1.214h25.5c.877 0 1.594-.547 1.594-1.214 0-.668-.717-1.215-1.594-1.215h-25.5c-.876 0-1.593.547-1.593 1.215z" fill="#000"/></svg>