<svg width="55" height="34" fill="none" xmlns="http://www.w3.org/2000/svg"><path d="M27.5 0c-.695 0-1.383.106-2.036.311L1.359 7.998C.543 8.263.001 8.946.001 9.712c0 .767.542 1.45 1.358 1.715l4.976 1.586c-1.41 1.958-2.209 4.272-2.209 6.708v2.132c0 2.155-.928 4.378-1.916 6.13a19.785 19.785 0 01-1.934 2.854 1.107 1.107 0 00-.197 1.138c.154.387.515.675.962.774l5.5 1.214c.36.084.748.023 1.066-.152.318-.174.541-.463.61-.789.739-3.247.37-6.161-.18-8.248-.276-1.077-.645-2.178-1.16-3.187v-1.866c0-2.292.876-4.454 2.397-6.184a10.534 10.534 0 014.228-2.71l13.492-4.68c.704-.244 1.503.06 1.779.682.274.622-.07 1.328-.774 1.57l-13.492 4.682a8.022 8.022 0 00-2.767 1.64l13.715 4.37a6.808 6.808 0 004.074 0l24.113-7.664C54.46 11.17 55 10.48 55 9.712c0-.766-.541-1.449-1.358-1.714L29.537.31A6.809 6.809 0 0027.501 0zM11.002 28.53c0 2.679 7.39 5.463 16.5 5.463 9.109 0 16.5-2.784 16.5-5.463l-1.316-11.033-12.22 3.9a9.8 9.8 0 01-2.964.456 9.76 9.76 0 01-2.965-.455l-12.22-3.9L11 28.53z" fill="#000"/></svg>