<svg width="50" height="50" fill="none" xmlns="http://www.w3.org/2000/svg"><path d="M25 50C11.195 50 0 38.805 0 25S11.195 0 25 0s25 11.195 25 25-11.195 25-25 25z" fill="#25D366"/><path fill-rule="evenodd" clip-rule="evenodd" d="M36.695 13.36A16.343 16.343 0 0025.07 8.54c-9.055 0-16.43 7.37-16.43 16.43 0 2.895.755 5.725 2.195 8.215L8.505 41.7l8.71-2.285c2.4 1.31 5.1 2 7.85 2h.005c9.055 0 16.425-7.37 16.43-16.43.005-4.39-1.7-8.52-4.805-11.625zm-11.62 25.28h-.005c-2.45 0-4.855-.66-6.95-1.905l-.5-.295-5.17 1.355 1.38-5.04-.325-.515a13.65 13.65 0 01-2.09-7.27c.005-7.53 6.13-13.655 13.665-13.655 3.65 0 7.075 1.425 9.655 4.005 2.58 2.58 4 6.015 3.995 9.66 0 7.535-6.13 13.66-13.655 13.66zm7.49-10.23c-.41-.205-2.43-1.2-2.805-1.335s-.65-.205-.925.205-1.06 1.335-1.3 1.61c-.24.275-.48.31-.89.105-.41-.205-1.735-.64-3.3-2.04-1.22-1.09-2.045-2.435-2.285-2.845-.24-.41-.025-.635.18-.84.185-.185.41-.48.615-.72.205-.24.275-.41.41-.685.135-.275.07-.515-.035-.72-.105-.205-.925-2.225-1.265-3.05-.335-.8-.67-.69-.925-.705-.24-.01-.515-.015-.785-.015-.275 0-.72.105-1.095.515-.375.41-1.435 1.405-1.435 3.425 0 2.02 1.47 3.975 1.675 4.245.205.275 2.895 4.42 7.015 6.2.98.425 1.745.675 2.34.865.985.315 1.88.27 2.585.165.79-.12 2.43-.995 2.77-1.95.34-.96.34-1.78.24-1.95-.1-.17-.375-.27-.785-.48z" fill="#fff"/></svg>