<svg width="29" height="20" viewBox="0 0 29 20" fill="none" xmlns="http://www.w3.org/2000/svg">
<path d="M0 2.85714H29C29 1.28125 27.555 0 25.7778 0H3.22222C1.44497 0 0 1.28125 0 2.85714ZM0 4.28571V17.1429C0 18.7188 1.44497 20 3.22222 20H25.7778C27.555 20 29 18.7188 29 17.1429V4.28571H0ZM3.22222 16.6652C3.22222 15.3482 4.42552 14.2857 5.90573 14.2857H11.8165C13.3017 14.2857 14.5 15.3527 14.5 16.6652C14.5 16.9286 14.2583 17.1429 13.9613 17.1429H3.76094C3.46389 17.1429 3.22222 16.9286 3.22222 16.6652ZM8.86111 7.14286C9.7157 7.14286 10.5353 7.44388 11.1396 7.97969C11.7439 8.51551 12.0833 9.24224 12.0833 10C12.0833 10.7578 11.7439 11.4845 11.1396 12.0203C10.5353 12.5561 9.7157 12.8571 8.86111 12.8571C8.00653 12.8571 7.18694 12.5561 6.58266 12.0203C5.97837 11.4845 5.63889 10.7578 5.63889 10C5.63889 9.24224 5.97837 8.51551 6.58266 7.97969C7.18694 7.44388 8.00653 7.14286 8.86111 7.14286ZM17.7222 7.85714C17.7222 7.46429 18.0847 7.14286 18.5278 7.14286H24.9722C25.4153 7.14286 25.7778 7.46429 25.7778 7.85714C25.7778 8.25 25.4153 8.57143 24.9722 8.57143H18.5278C18.0847 8.57143 17.7222 8.25 17.7222 7.85714ZM17.7222 10.7143C17.7222 10.3214 18.0847 10 18.5278 10H24.9722C25.4153 10 25.7778 10.3214 25.7778 10.7143C25.7778 11.1071 25.4153 11.4286 24.9722 11.4286H18.5278C18.0847 11.4286 17.7222 11.1071 17.7222 10.7143ZM17.7222 13.5714C17.7222 13.1786 18.0847 12.8571 18.5278 12.8571H24.9722C25.4153 12.8571 25.7778 13.1786 25.7778 13.5714C25.7778 13.9643 25.4153 14.2857 24.9722 14.2857H18.5278C18.0847 14.2857 17.7222 13.9643 17.7222 13.5714Z" fill="black"/>
</svg>
