<svg width="20" height="20" viewBox="0 0 20 20" fill="none" xmlns="http://www.w3.org/2000/svg">
<path d="M2.85714 0C1.28125 0 0 1.28125 0 2.85714V17.1429C0 18.7188 1.28125 20 2.85714 20H17.1429C18.7188 20 20 18.7188 20 17.1429V2.85714C20 1.28125 18.7188 0 17.1429 0H2.85714ZM15.0446 7.90179L9.33036 13.6161C8.91072 14.0357 8.23214 14.0357 7.81696 13.6161L4.95982 10.7589C4.54018 10.3393 4.54018 9.66071 4.95982 9.24554C5.37946 8.83036 6.05804 8.82589 6.47321 9.24554L8.57143 11.3438L13.5268 6.38393C13.9464 5.96429 14.625 5.96429 15.0402 6.38393C15.4554 6.80357 15.4598 7.48214 15.0402 7.89732L15.0446 7.90179Z" fill="#A29EB5"/>
</svg>
