<svg width="29" height="20" fill="none" xmlns="http://www.w3.org/2000/svg"><path d="M0 2.857h29C29 1.281 27.555 0 25.778 0H3.222C1.445 0 0 1.281 0 2.857zm0 1.429v12.857C0 18.719 1.445 20 3.222 20h22.556C27.555 20 29 18.719 29 17.143V4.286H0zm3.222 12.38c0-1.318 1.204-2.38 2.684-2.38h5.91c1.486 0 2.684 1.067 2.684 2.38 0 .263-.242.477-.539.477h-10.2c-.297 0-.539-.214-.539-.478zm5.64-9.523c.854 0 1.673.3 2.278.837.604.536.943 1.262.943 2.02s-.34 1.485-.943 2.02c-.605.536-1.424.837-2.279.837-.854 0-1.674-.3-2.278-.837-.605-.535-.944-1.262-.944-2.02s.34-1.484.944-2.02c.604-.536 1.424-.837 2.278-.837zm8.86.714c0-.393.363-.714.806-.714h6.444c.443 0 .806.321.806.714 0 .393-.363.714-.806.714h-6.444c-.443 0-.806-.321-.806-.714zm0 2.857c0-.393.363-.714.806-.714h6.444c.443 0 .806.321.806.714 0 .393-.363.715-.806.715h-6.444c-.443 0-.806-.322-.806-.715zm0 2.857c0-.392.363-.714.806-.714h6.444c.443 0 .806.322.806.714 0 .393-.363.715-.806.715h-6.444c-.443 0-.806-.322-.806-.715z" fill="#000"/></svg>