<svg width="51" height="51" viewBox="0 0 51 51" fill="none" xmlns="http://www.w3.org/2000/svg">
<path d="M2.40455 33.8987C0.58814 34.6506 -0.378657 36.6331 0.138921 38.5276L2.48267 47.1213C2.95142 48.8206 4.49439 50.0022 6.2522 50.0022C30.4124 50.0022 50.0022 30.4124 50.0022 6.2522C50.0022 4.49438 48.8206 2.95142 47.1213 2.48267L38.5276 0.138916C36.6331 -0.378662 34.6506 0.588135 33.8987 2.40454L29.9924 11.7795C29.3284 13.3713 29.7874 15.217 31.1252 16.301L35.9397 20.2463C32.6877 27.1213 27.1213 32.6877 20.2463 35.9397L16.3108 31.1252C15.217 29.7874 13.3811 29.3284 11.7893 29.9924L2.41431 33.8987H2.40455Z" fill="#5A93A7"/>
</svg>
