<svg width="20" height="20" fill="none" xmlns="http://www.w3.org/2000/svg"><path d="M19.744 6.995l-2.869-2.1V3.126a.625.625 0 00-.625-.625h-2.637L10.369.121a.625.625 0 00-.738 0L6.387 2.5H3.75a.625.625 0 00-.625.625v1.769l-2.869 2.1A.625.625 0 000 7.5v10.624A1.875 1.875 0 001.875 20h16.25A1.875 1.875 0 0020 18.125V7.501a.624.624 0 00-.256-.506zm-2.869-.55L18.25 7.45l-1.375.819V6.445zM10 1.402l1.5 1.1h-3l1.5-1.1zm-5.625 2.35h11.25V9.02L10 12.394 4.375 9.02V3.75zm-1.25 2.693v1.83L1.75 7.452l1.375-1.006zm15.625 11.68a.625.625 0 01-.625.625H1.875a.625.625 0 01-.625-.625V8.607l8.431 5.056a.625.625 0 00.625 0l8.444-5.056v9.518z" fill="#fff"/></svg>