<svg width="20" height="20" viewBox="0 0 20 20" fill="none" xmlns="http://www.w3.org/2000/svg">
<path d="M10 20C12.6522 20 15.1957 18.9464 17.0711 17.0711C18.9464 15.1957 20 12.6522 20 10C20 7.34784 18.9464 4.8043 17.0711 2.92893C15.1957 1.05357 12.6522 0 10 0C7.34784 0 4.8043 1.05357 2.92893 2.92893C1.05357 4.8043 0 7.34784 0 10C0 12.6522 1.05357 15.1957 2.92893 17.0711C4.8043 18.9464 7.34784 20 10 20ZM7.78906 12.2109C9.00781 13.4297 10.9883 13.4297 12.207 12.2109C12.5742 11.8438 13.168 11.8438 13.5312 12.2109C13.8945 12.5781 13.8984 13.1719 13.5312 13.5352C11.5781 15.4883 8.41406 15.4883 6.46094 13.5352C4.50781 11.582 4.50781 8.41797 6.46094 6.46484C8.41406 4.51172 11.5781 4.51172 13.5312 6.46484C13.8984 6.83203 13.8984 7.42578 13.5312 7.78906C13.1641 8.15234 12.5703 8.15625 12.207 7.78906C10.9883 6.57031 9.00781 6.57031 7.78906 7.78906C6.57031 9.00781 6.57031 10.9883 7.78906 12.207V12.2109Z" fill="white"/>
</svg>
