<svg width="20" height="20" viewBox="0 0 20 20" fill="none" xmlns="http://www.w3.org/2000/svg">
<path d="M19.7437 6.9948L16.875 4.89498V3.12637C16.875 2.96062 16.8092 2.80166 16.6919 2.68446C16.5747 2.56726 16.4158 2.50142 16.25 2.50142H13.6125L10.3688 0.120363C10.2617 0.0421519 10.1326 0 10 0C9.86743 0 9.73829 0.0421519 9.63125 0.120363L6.3875 2.50142H3.75C3.58424 2.50142 3.42527 2.56726 3.30806 2.68446C3.19085 2.80166 3.125 2.96062 3.125 3.12637V4.89498L0.256252 6.9948C0.176629 7.05298 0.111903 7.12918 0.0673667 7.21716C0.02283 7.30514 -0.000253737 7.40241 2.10363e-06 7.50101V18.1252C2.10363e-06 18.6224 0.197546 19.0993 0.549177 19.4509C0.900807 19.8025 1.37772 20 1.875 20H18.125C18.6223 20 19.0992 19.8025 19.4508 19.4509C19.8025 19.0993 20 18.6224 20 18.1252V7.50101C20.0003 7.40241 19.9772 7.30514 19.9326 7.21716C19.8881 7.12918 19.8234 7.05298 19.7437 6.9948ZM16.875 6.44485L18.25 7.45102L16.875 8.2697V6.44485ZM10 1.40151L11.5 2.50142H8.5L10 1.40151ZM4.375 3.75132H15.625V9.01964L10 12.3944L4.375 9.01964V3.75132ZM3.125 6.44485V8.27595L1.75 7.45102L3.125 6.44485ZM18.75 18.1252C18.75 18.2909 18.6842 18.4499 18.5669 18.5671C18.4497 18.6843 18.2908 18.7501 18.125 18.7501H1.875C1.70924 18.7501 1.55027 18.6843 1.43306 18.5671C1.31585 18.4499 1.25 18.2909 1.25 18.1252V8.60717L9.68125 13.663C9.77626 13.7179 9.88404 13.7467 9.99375 13.7467C10.1035 13.7467 10.2112 13.7179 10.3063 13.663L18.75 8.60717V18.1252Z" fill="white"/>
</svg>
