<svg width="20" height="14" viewBox="0 0 20 14" fill="none" xmlns="http://www.w3.org/2000/svg">
<path d="M20 8.75C20 11.6506 17.6027 14 14.6429 14H14.2857C13.4955 14 12.8571 13.3744 12.8571 12.6C12.8571 11.8256 13.4955 11.2 14.2857 11.2H14.6429C16.0223 11.2 17.1429 10.1019 17.1429 8.75V8.4H14.2857C12.7098 8.4 11.4286 7.14437 11.4286 5.6V2.8C11.4286 1.25563 12.7098 0 14.2857 0H17.1429C18.7188 0 20 1.25563 20 2.8V4.2V5.6V8.75ZM8.57143 8.75C8.57143 11.6506 6.17411 14 3.21429 14H2.85714C2.06696 14 1.42857 13.3744 1.42857 12.6C1.42857 11.8256 2.06696 11.2 2.85714 11.2H3.21429C4.59375 11.2 5.71429 10.1019 5.71429 8.75V8.4H2.85714C1.28125 8.4 0 7.14437 0 5.6V2.8C0 1.25563 1.28125 0 2.85714 0H5.71429C7.29018 0 8.57143 1.25563 8.57143 2.8V4.2V5.6V8.75Z" fill="#5A93A7"/>
</svg>
