<svg width="50" height="50" viewBox="0 0 50 50" fill="none" xmlns="http://www.w3.org/2000/svg">
<path d="M25 50C11.195 50 0 38.805 0 25C0 11.195 11.195 0 25 0C38.805 0 50 11.195 50 25C50 38.805 38.805 50 25 50Z" fill="#25D366"/>
<path fill-rule="evenodd" clip-rule="evenodd" d="M36.6949 13.36C33.5949 10.255 29.4649 8.54504 25.0699 8.54004C16.0149 8.54004 8.63988 15.91 8.63988 24.97C8.63988 27.865 9.39488 30.695 10.8349 33.185L8.50488 41.7L17.2149 39.415C19.6149 40.725 22.3149 41.415 25.0649 41.415H25.0699C34.1249 41.415 41.4949 34.045 41.4999 24.985C41.5049 20.595 39.7999 16.465 36.6949 13.36ZM25.0749 38.64H25.0699C22.6199 38.64 20.2149 37.98 18.1199 36.735L17.6199 36.44L12.4499 37.795L13.8299 32.755L13.5049 32.24C12.1399 30.065 11.4149 27.555 11.4149 24.97C11.4199 17.44 17.5449 11.315 25.0799 11.315C28.7299 11.315 32.1549 12.74 34.7349 15.32C37.3149 17.9 38.7349 21.335 38.7299 24.98C38.7299 32.515 32.5999 38.64 25.0749 38.64ZM32.5649 28.41C32.1549 28.205 30.1349 27.21 29.7599 27.075C29.3849 26.94 29.1099 26.87 28.8349 27.28C28.5599 27.69 27.7749 28.615 27.5349 28.89C27.2949 29.165 27.0549 29.2 26.6449 28.995C26.2349 28.79 24.9099 28.355 23.3449 26.955C22.1249 25.865 21.2999 24.52 21.0599 24.11C20.8199 23.7 21.0349 23.475 21.2399 23.27C21.4249 23.085 21.6499 22.79 21.8549 22.55C22.0599 22.31 22.1299 22.14 22.2649 21.865C22.3999 21.59 22.3349 21.35 22.2299 21.145C22.1249 20.94 21.3049 18.92 20.9649 18.095C20.6299 17.295 20.2949 17.405 20.0399 17.39C19.7999 17.38 19.5249 17.375 19.2549 17.375C18.9799 17.375 18.5349 17.48 18.1599 17.89C17.7849 18.3 16.7249 19.295 16.7249 21.315C16.7249 23.335 18.1949 25.29 18.3999 25.56C18.6049 25.835 21.2949 29.98 25.4149 31.76C26.3949 32.185 27.1599 32.435 27.7549 32.625C28.7399 32.94 29.6349 32.895 30.3399 32.79C31.1299 32.67 32.7699 31.795 33.1099 30.84C33.4499 29.88 33.4499 29.06 33.3499 28.89C33.2499 28.72 32.9749 28.62 32.5649 28.41Z" fill="white"/>
</svg>
